<svg xmlns="http://www.w3.org/2000/svg" viewBox="0 0 294 72" fill='currentColor'>
  <path d="M155.5,19.2c17.7,0,17.8,13.6,17.8,13.6v21.5h-11V35.4c0,0-0.3-6.7-7-6.7s-6.4,6.9-6.4,6.9v18.7H138V32.8
    C138,32.8,137.8,19.2,155.5,19.2L155.5,19.2z"/>
  <path d="M68.8,19.4c5.6-0.7,12,0.7,14.8,5.3c0.3,0.4,1.1,2,1.1,2l-8.4,3.4c-0.4-0.6-0.8-1.1-1.2-1.6c-1.5-1.5-4-2.8-5.8-1.1
    c-0.8,0.7-1.1,1.8-0.9,2.9c0.7,3,10.3,3.9,13.9,7.2c1.4,1.3,2.3,3,2.7,4.9c0.7,2.8,0.2,5.8-1.5,8.3c-4.8,7.6-19.8,6.8-25.1,0.2
    c-0.6-0.7-1.8-2.8-1.8-2.8l9.2-3.6l1.1,1.5c1.2,1.7,3.2,2.6,5.2,2.3c1.5-0.3,4-2,2.2-4.7c-0.2-0.2-0.3-0.4-0.5-0.5
    c-1.4-0.9-2.9-1.4-4.6-1.7c-3-0.8-7.4-2.5-9.4-4.8C55.5,31.2,57.9,25.2,62,22C64,20.6,66.4,19.7,68.8,19.4z"/>
  <polygon points="41.3,20.3 52.4,20.3 52.4,54.3 41.3,54.3 41.3,20.3 "/>
  <path d="M278.2,19.2c12,0,15.8,6.6,15.8,6.6l-10.8,4.4c-1.5-1.1-3.4-1.7-5.2-1.5c-6.7,0-6.4,6.9-6.4,6.9v18.7h-10.9V32.8
    C260.7,32.8,260.2,19.2,278.2,19.2L278.2,19.2z"/>
  <path class="st0" d="M10.6,32.3v9.1c0,4,3.6,6.9,8.7,5.6s6-7,6-9.6c0-0.8,0-1.3,0-1.3s0-0.4,0-1.1c-0.1-2.3-0.8-7.7-6-9
    C13.5,24.8,10.6,30.2,10.6,32.3z M0,0h10.8v20.7c5.7-3.1,12.6-2.7,17.9,1c1.3,1,2.6,2.1,3.7,3.3c5.9,6.5,3.1,18.8,3.1,18.8
    S32.5,56,17.4,56c-10.9,0-15-5.3-16.6-8.8c-0.2-0.6-0.4-1.1-0.5-1.7C0,44.4,0,43.4,0,42.5V0z"/>
  <path class="st0" d="M196.3,26.9c-2.9,0.1-5.6,1.9-6.7,4.6c-0.4,0.8-0.6,1.6-0.6,2.5v6.7c0.4,3.9,3.4,6.9,7.3,7.4
    c7.7,0.5,7.6-5.3,7.6-5.3v-8.9C203.8,33.9,203.9,27.1,196.3,26.9L196.3,26.9z M215,34.4V56c0,0,0.4,14.8-17.3,15.9
    c-20,1.3-19.9-12.4-19.9-12.4H189c0,0,1.4,5.2,9.4,4.1c7-1.1,5.5-9.5,5.5-9.5s-8.6,5.4-19.3-1.9c-7.7-5.3-9.3-20-2-27.2
    c8.4-8.3,20.2-6.3,26.3-1.6C215.3,28.3,215,34.4,215,34.4z"/>
  <path class="st0" d="M238.2,26.8c-6.7,0-7,6.9-7,6.9h14.1C245.3,33.7,245.2,26.8,238.2,26.8z M237.8,19.2c9.4,0,16.6,4.9,18.3,13.9
    c0.2,2.2,0.3,4.4,0.2,6.6H231c0,3.4,2.1,6.4,5.2,7.6c6.1,2.3,10-4,10-4l8.7,4.5c0,0-10.8,13-25.1,6.7c-0.8-0.4-1.7-0.8-2.4-1.2
    c-0.3-0.2-0.4-0.3-0.7-0.4c-4.8-2.9-9.9-12.8-5.6-23.3C223.5,23.7,230.1,19.2,237.8,19.2L237.8,19.2z"/>
  <path d="M99.3,19.4c5.6-0.7,12,0.7,14.8,5.3c0.3,0.4,1.1,2,1.1,2l-8.4,3.4c-0.4-0.6-0.8-1.1-1.2-1.6c-1.4-1.5-4-2.8-5.8-1.1
    c-0.8,0.7-1.1,1.8-0.9,2.9c0.7,3,10.3,3.9,13.9,7.2c1.4,1.3,2.3,3,2.7,4.9c0.7,2.8,0.2,5.8-1.5,8.3c-4.8,7.6-19.8,6.8-25.1,0.2
    c-0.6-0.7-1.8-2.8-1.8-2.8l9.2-3.6l1.1,1.5c1.2,1.7,3.2,2.6,5.2,2.3c1.5-0.3,4-2,2.2-4.7c-0.2-0.2-0.3-0.4-0.5-0.5
    c-1.4-0.9-2.9-1.4-4.5-1.7c-3-0.8-7.4-2.5-9.4-4.8c-4.3-5.3-1.9-11.3,2.2-14.5C94.4,20.6,96.8,19.7,99.3,19.4z"/>
  <polygon points="120.2,20.3 131.4,20.3 131.4,54.3 120.2,54.3 120.2,20.3 "/>
</svg>
