<?xml version="1.0" encoding="utf-8"?>
<!-- Generator: $$$/GeneralStr/196=Adobe Illustrator 27.6.0, SVG Export Plug-In . SVG Version: 6.00 Build 0)  -->
<svg version="1.1" id="Ebene_1" xmlns="http://www.w3.org/2000/svg" xmlns:xlink="http://www.w3.org/1999/xlink" x="0px" y="0px"
	 viewBox="0 0 356.6 40.8" style="enable-background:new 0 0 356.6 40.8;" xml:space="preserve">
<style type="text/css">
	.st0{fill-rule:evenodd;clip-rule:evenodd;}
</style>
<g>
	<path class="st0" d="M0,0h48.4v9.9H18.6v6.4H38v7.9H18.6v6.6h30.6v10.1H0C0,40.8,0,0,0,0z"/>
	<path class="st0" d="M298,30.7v10.1h-49.5V0h18.9v30.7H298z"/>
	<path class="st0" d="M174.4,30.7v10.1h-49.2V0h48.4v9.9h-29.8v6.4h19.4v7.9h-19.4v6.6L174.4,30.7L174.4,30.7z"/>
	<path class="st0" d="M356.6,30.7v10.1h-49.2V0h48.4v9.9H326v6.4h19.4v7.9H326v6.6L356.6,30.7L356.6,30.7z"/>
	<path class="st0" d="M237.5,8.4c0-4.6-3.8-8.4-8.4-8.4h-42.9v40.8h18.4V30.4h5.7l10.4,10.5h19.2l-10.4-10.5c4.5-0.2,8-3.9,8-8.4
		L237.5,8.4L237.5,8.4L237.5,8.4z M215.6,20.4c1.8,0,3.3-1.5,3.3-3.3v-3.4c0-1.8-1.5-3.3-3.3-3.3h-11v10
		C204.6,20.4,215.6,20.4,215.6,20.4z"/>
	<path class="st0" d="M107.4,19.8c3.1,0,5.6-2.5,5.6-5.6V7.8c0-4.3-3.5-7.8-7.8-7.8H58.9v40.8h47.7c4.3,0,7.8-3.5,7.8-7.8v-6
		C114.5,23,111.3,19.8,107.4,19.8C107.3,19.8,107.4,19.8,107.4,19.8z M91.5,15.9c1.7,0,3-1.3,3-3v-0.7c0-1.5-1.2-2.7-2.7-2.7H77.8
		v6.4H91.5L91.5,15.9z M92.9,31.4c1.8,0,3.3-1.5,3.3-3.3v-1.4c0-1.5-1.2-2.7-2.7-2.7H77.8v7.4C77.8,31.4,92.9,31.4,92.9,31.4z"/>
</g>
</svg>
