<svg xmlns="http://www.w3.org/2000/svg" viewBox="0 0 266.5 45.7">
<path class="st0" d="M27.3,0h14.8v44.4H27.3V26.2H13.7v18.2H0V0h13.7v17.1h13.7V0z M88.8,25.1c0,14-6.8,20.5-20.5,20.5
	c-13.7,0-20.5-6.5-20.5-20.5V0h13.7v26.2c0,5.4,1.8,8.1,5.4,8.1c1,0,1.9,0,2.8,0c3.6,0,5.4-2.7,5.4-8.1V0h13.7V25.1z M132.1,3.4
	c3,3,4.6,6.7,4.6,12.5c0,3.4-1.2,6.6-3.4,8.4c-0.8,0.6-1.6,1.3-2.3,1.9c-3,2.5-7.1,3.4-12.4,3.4h-8v14.8H96.8V0h21.6
	C124.6,0,129.1,1.3,132.1,3.4z M121.8,19.4c0.6-0.9,1.1-2.2,1.1-3.4c0-2.3-0.5-3.6-1.1-4.6c-1.4-0.7-3.1-1.1-5.7-1.1h-5.7v10.2h5.7
	C118.8,20.5,120.4,20.1,121.8,19.4z M154.9,10.2v8h17.1v10.2h-17.1v15.9h-13.7V0h35.3v10.2H154.9z M217.5,34.2v10.2h-36.4V0h35.3
	v10.2h-21.6v8h17.1v8h-17.1v8H217.5z M243.7,28.5H238v15.9h-13.7V0H246c6.4,0,10.7,1.2,13.7,3.4c2.8,2.8,4.3,6.4,4.6,11.4
	c-0.2,6.2-3,10.5-9.1,12.5l11.4,17.1h-14.8L243.7,28.5z M238,20.5h6.8c2.6,0,4.3-0.4,5.7-1.1c0.6-0.8,1.1-2.1,1.1-3.4
	c0-2.3-0.5-3.7-1.1-4.6c-1.4-0.7-3.1-1.1-5.7-1.1H238V20.5z"/>
</svg>
