<?xml version="1.0" encoding="utf-8"?>
<!-- Generator: $$$/GeneralStr/196=Adobe Illustrator 27.6.0, SVG Export Plug-In . SVG Version: 6.00 Build 0)  -->
<svg version="1.1" id="Ebene_1" xmlns="http://www.w3.org/2000/svg" xmlns:xlink="http://www.w3.org/1999/xlink" x="0px" y="0px"
	 viewBox="0 0 362.8 47.8" style="enable-background:new 0 0 362.8 47.8;" xml:space="preserve">
<path d="M281.9,44.3c-3.9,0-7-6.3-7-14c0-7.7,3.1-14,7-14c3.9,0,7,6.2,7,14C288.9,38.1,285.7,44.3,281.9,44.3 M281.9,12.9
	c-13.5,0-24.4,7.8-24.4,17.4c0,9.6,10.9,17.4,24.4,17.4c13.5,0,24.4-7.8,24.4-17.4C306.3,20.7,295.4,12.9,281.9,12.9"/>
<path d="M237.4,35.6c-1,5.1-3.5,8.7-6.5,8.7c-3.9,0-7-6.3-7-14c0-7.7,3.1-14,7-14c2.9,0,5.4,3.6,6.5,8.7h16.8
	c-3.1-7.1-12.4-12.2-23.3-12.2c-13.5,0-24.4,7.8-24.4,17.4c0,9.6,10.9,17.4,24.4,17.4c10.9,0,20.2-5.1,23.3-12.2L237.4,35.6
	L237.4,35.6z"/>
<path d="M101.9,16.4c3.4,0,6.2,4.8,6.8,11.2H95C95.7,21.2,98.5,16.4,101.9,16.4 M107.7,38c-1.2,3.8-3.4,6.3-5.8,6.3
	c-3.5,0-6.4-5.1-6.9-11.9h10.7h3.1h17.3c0.1-0.7,0.2-1.4,0.2-2.1c0-9.6-10.9-17.4-24.4-17.4c-13.5,0-24.4,7.8-24.4,17.4
	c0,9.6,10.9,17.4,24.4,17.4c9.6,0,18-4,21.9-9.8L107.7,38L107.7,38z"/>
<rect x="184.9" y="13.6" width="17.4" height="33.5"/>
<path d="M202.4,5.2c0,2.9-3.9,5.2-8.7,5.2c-4.8,0-8.7-2.3-8.7-5.2c0-2.9,3.9-5.2,8.7-5.2C198.4,0,202.4,2.3,202.4,5.2"/>
<path d="M154.2,44.3c-3.9,0-7-6.3-7-14c0-7.7,3.1-14,7-14c3.9,0,7,6.3,7,14C161.2,38.1,158.1,44.3,154.2,44.3 M161.2,5.2v11.2
	c-2.9-2.2-6.5-3.5-10.5-3.5c-11.6,0-20.9,7.8-20.9,17.4c0,9.6,9.4,17.4,20.9,17.4c3.9,0,7.6-1.3,10.5-3.5v2.8h17.4V5.2L161.2,5.2
	L161.2,5.2z"/>
<path d="M341.9,12.9c-5.4,0-10.2,1.7-14,4.4v-3.7h-17.4v33.5h17.4V23.7c0-2.9,2.3-5.2,5.2-5.2c2.9,0,5.2,2.3,5.2,5.2v23.4h17.4V26.9
	C355.9,19.2,349.6,12.9,341.9,12.9"/>
<path d="M355.8,6.4c1,0,1.9-0.1,1.9-1.2c0-0.9-1-1.1-1.8-1.1h-1.5v2.3L355.8,6.4L355.8,6.4z M355.7,7.5h-1.2V11h-1.3V3h3.1
	c2,0,3,0.7,3,2.3c0,1.5-0.9,2-2.2,2.2l2.3,3.5h-1.6L355.7,7.5z M355.9,1.5c-3,0-5.4,2.4-5.4,5.5c0,3.2,2.4,5.5,5.4,5.5
	c3,0,5.4-2.4,5.4-5.5C361.3,3.8,358.9,1.5,355.9,1.5 M355.9,0c3.7,0,7,2.8,7,7c0,4.2-3.3,7-7,7c-3.7,0-7-2.8-7-7
	C348.9,2.8,352.2,0,355.9,0"/>
<path d="M0,13.6v33.5h17.4V23.7c0-2.9,2.3-5.2,5.2-5.2c2.9,0,5.2,2.3,5.2,5.2v23.4h17.4V23.7c0-2.9,2.3-5.2,5.2-5.2
	c2.9,0,5.2,2.3,5.2,5.2v23.4h17.4V13.6C73.3,13.6,0,13.6,0,13.6z"/>
</svg>
