<?xml version="1.0" encoding="utf-8"?>
<!-- Generator: Adobe Illustrator 26.0.2, SVG Export Plug-In . SVG Version: 6.00 Build 0)  -->
<svg version="1.1" id="Ebene_1" xmlns="http://www.w3.org/2000/svg" xmlns:xlink="http://www.w3.org/1999/xlink" x="0px" y="0px"
	 viewBox="0 0 560.5 108.4" style="enable-background:new 0 0 560.5 108.4;" xml:space="preserve">
<style type="text/css">
	.st0{clip-path:url(#SVGID_00000068641790555192308630000004739432054707995776_);}
	.st1{clip-path:url(#SVGID_00000088108081691147216440000004755078574979080849_);fill:#19104A;}
	.st2{clip-path:url(#SVGID_00000068641790555192308630000004739432054707995776_);fill:#19104A;}
	.st3{clip-path:url(#SVGID_00000181776311966514833680000001652661641341255586_);fill:#19104A;}
	.st4{clip-path:url(#SVGID_00000068641790555192308630000004739432054707995776_);fill:#B02F3B;}
	.st5{clip-path:url(#SVGID_00000050641125011996494790000014683525030808751789_);fill:#FF173D;}
	.st6{clip-path:url(#SVGID_00000050641125011996494790000014683525030808751789_);fill:#19104A;}
	.st7{opacity:0.6;clip-path:url(#SVGID_00000050641125011996494790000014683525030808751789_);}
	.st8{clip-path:url(#SVGID_00000016763708183670647380000000541468817236371643_);fill:#FF173D;}
</style>
<g>
	<defs>
		<rect id="SVGID_1_" x="-0.1" y="-0.3" width="560.8" height="107.8"/>
	</defs>
	<clipPath id="SVGID_00000111156373420804558590000003861305105056116389_">
		<use xlink:href="#SVGID_1_"  style="overflow:visible;"/>
	</clipPath>
	<g style="clip-path:url(#SVGID_00000111156373420804558590000003861305105056116389_);">
		<defs>
			<rect id="SVGID_00000023967233033683572970000003343992526251396019_" x="-0.1" y="-0.3" width="560.8" height="107.8"/>
		</defs>
		<clipPath id="SVGID_00000146469812307110348760000004709255952941575607_">
			<use xlink:href="#SVGID_00000023967233033683572970000003343992526251396019_"  style="overflow:visible;"/>
		</clipPath>
		<path style="clip-path:url(#SVGID_00000146469812307110348760000004709255952941575607_);fill:#19104A;" d="M210,107.5
			c10.9,0,19.8-1.3,26.8-8.4c6.1-6.1,7.3-15.2,7.3-28.2V26.4H226v47.1c0,5.8-0.6,9.9-2.7,13.2c-2.8,4.1-7.4,5.7-13.1,5.7
			s-10.3-1.7-12.9-5.5c-2.4-3.6-3-7.9-3-14.2V26.4h-18.6V71c0,13,1.2,22,7.2,28.2C190,106.3,199.1,107.5,210,107.5 M122.6,24.8
			c-11,0-20.5,1.9-28.3,8.4C86,40.3,82.6,52.5,82.6,66.2s3.6,25.9,11.9,32.9c7.7,6.6,17.2,8.4,28.2,8.4c10.9,0,20.5-1.9,28.3-8.4
			c8.4-7.1,11.7-19.4,11.7-33.2c0-13.6-3.6-25.8-11.8-32.8C143.2,26.6,133.5,24.8,122.6,24.8 M122.8,92.4c-15,0-21.2-9.2-21.2-26.8
			s5.8-25.8,21.2-25.8c14.8,0,21.1,9.2,21.1,26.8S138.1,92.4,122.8,92.4 M68.1,105.9V26.4H51.2v50.5h-0.3L21.5,26.4H-0.1v79.5H17
			V54.6h0.2l30.6,51.3H68.1z"/>
	</g>
	<polygon style="clip-path:url(#SVGID_00000111156373420804558590000003861305105056116389_);fill:#19104A;" points="306.1,105.9 
		333.9,26.4 314.7,26.4 295.1,87.1 294.7,87.1 275.1,26.4 255.1,26.4 282.9,105.9 	"/>
	<path style="clip-path:url(#SVGID_00000111156373420804558590000003861305105056116389_);fill:#19104A;" d="M370.3,43.4l10.1,30.4
		h-20.6l10.1-30.4H370.3z M411.1,105.9l-28.9-79.5h-23.3L330,105.9h19.3l5.3-15.8h31l5.3,15.8H411.1z"/>
	<g style="clip-path:url(#SVGID_00000111156373420804558590000003861305105056116389_);">
		<defs>
			<rect id="SVGID_00000131340115078402785650000009705991553174675884_" x="-0.1" y="-0.3" width="560.8" height="107.8"/>
		</defs>
		<clipPath id="SVGID_00000072275688417802677800000005009007725745780364_">
			<use xlink:href="#SVGID_00000131340115078402785650000009705991553174675884_"  style="overflow:visible;"/>
		</clipPath>
		<path style="clip-path:url(#SVGID_00000072275688417802677800000005009007725745780364_);fill:#19104A;" d="M459.6,24.8
			c-11.8,0-21.1,1.3-29,7.5c-9.9,7.8-13.6,21.3-13.6,33.8c0,13.2,2.9,24.5,10.3,32.2c6.5,6.7,15.1,9.2,26.1,9.2
			c8.8,0,20.8-2.1,32.5-5.2V73.8V61.3v-2.9h-26.3v15.4h10.9v17.1c-4.9,1-10.2,2-14.5,2c-14.2,0-20.2-10.2-20.2-26.2
			c0-18.4,6.6-26.3,25.5-26.3"/>
	</g>
	
		<rect x="459.5" y="24.8" style="clip-path:url(#SVGID_00000111156373420804558590000003861305105056116389_);fill:#19104A;" width="22.5" height="15.6"/>
	
		<rect x="535.8" y="24.8" style="clip-path:url(#SVGID_00000111156373420804558590000003861305105056116389_);fill:#B02F3B;" width="25" height="15.6"/>
	
		<rect x="495.1" y="24.8" style="clip-path:url(#SVGID_00000111156373420804558590000003861305105056116389_);" width="25" height="15.6"/>
	<g style="clip-path:url(#SVGID_00000111156373420804558590000003861305105056116389_);">
		<defs>
			<rect id="SVGID_00000023267190867882456610000001272591340229637793_" x="-0.1" y="-0.3" width="560.8" height="107.8"/>
		</defs>
		<clipPath id="SVGID_00000168803794360684171640000002323070901580367768_">
			<use xlink:href="#SVGID_00000023267190867882456610000001272591340229637793_"  style="overflow:visible;"/>
		</clipPath>
		<path style="clip-path:url(#SVGID_00000168803794360684171640000002323070901580367768_);fill:#FF173D;" d="M520.1,40.4
			C520.1,40.4,520.1,40.4,520.1,40.4v25h15.6v-9.4V40.4c0-8.6,7-15.6,15.6-15.6h-15.6C527.1,24.8,520.1,31.8,520.1,40.4"/>
		<path style="clip-path:url(#SVGID_00000168803794360684171640000002323070901580367768_);fill:#19104A;" d="M535.7,24.8
			L535.7,24.8v-25h-15.6v9.4v15.6c0,8.6-7,15.6-15.6,15.6h15.6C528.7,40.4,535.7,33.4,535.7,24.8"/>
		<g style="opacity:0.6;clip-path:url(#SVGID_00000168803794360684171640000002323070901580367768_);">
			<g>
				<defs>
					<rect id="SVGID_00000059999096865025932690000013674837430476175278_" x="511.1" y="17.8" width="33.6" height="23.6"/>
				</defs>
				<clipPath id="SVGID_00000042015657215033487550000008942207818256767935_">
					<use xlink:href="#SVGID_00000059999096865025932690000013674837430476175278_"  style="overflow:visible;"/>
				</clipPath>
				<path style="clip-path:url(#SVGID_00000042015657215033487550000008942207818256767935_);fill:#FF173D;" d="M535.7,24.8
					L535.7,24.8c-8.6,0-15.6,7-15.6,15.6C528.7,40.4,535.7,33.4,535.7,24.8"/>
			</g>
		</g>
	</g>
</g>
</svg>
