<?xml version="1.0" encoding="utf-8"?>
<!-- Generator: Adobe Illustrator 27.8.0, SVG Export Plug-In . SVG Version: 6.00 Build 0)  -->
<svg version="1.1" id="Ebene_1" xmlns="http://www.w3.org/2000/svg" xmlns:xlink="http://www.w3.org/1999/xlink" x="0px" y="0px"
	 viewBox="0 0 243.7 37.3" style="enable-background:new 0 0 243.7 37.3;" xml:space="preserve">
<style type="text/css">
	.st0{fill-rule:evenodd;clip-rule:evenodd;}
</style>
<g id="Group_3190_00000012450097118417226110000010742060046052846735_" transform="translate(384 -390.615)">
	<path id="Path_28_00000053544577295077662820000008409882475370296996_" class="st0" d="M-334,421.5c-0.1,0-3,0.1-3.7,0
		c-1.1-0.1-2.2-0.3-3.2-0.6c-1.3-0.5-2.6-1.1-3.9-1.8c-2.1-0.7-4.3-1-6.5-0.8h-8.3c-2.2-0.2-4.4,0.1-6.5,0.8
		c-1.2,0.7-2.5,1.3-3.9,1.8c-1,0.3-2.1,0.5-3.2,0.6h-3.7v-3.2c0.1,0,3,0,3.7-0.1c1.1-0.1,2.2-0.2,3.2-0.5c1.3-0.5,2.6-1.1,3.9-1.9
		c2.1-0.7,4.3-1,6.5-0.8h8.3c2.2-0.2,4.4,0.1,6.5,0.8c1.2,0.7,2.5,1.4,3.9,1.9c1,0.3,2.1,0.4,3.2,0.5c0.7,0,3.5,0.1,3.7,0.1
		L-334,421.5z"/>
	<path id="Path_29_00000065761951580423329900000002594446116286583446_" class="st0" d="M-355.5,421.1h8.3c1.9,0,3.8,0.6,5.5,1.6
		c2.4,1.3,5.1,1.8,7.7,1.5v3.2c-3,0.1-6.1-0.2-8.4-2c-1.7-0.8-3.6-1.2-5.6-1.2h-14.9c-1.9,0-3.8,0.4-5.6,1.2
		c-2.3,1.9-5.5,2.2-8.5,2.1v-3.2c2.7,0.2,5.3-0.3,7.7-1.5c1.6-1,3.5-1.6,5.5-1.6L-355.5,421.1z"/>
	<path id="Path_30_00000105424689060273466560000001016156414732514468_" class="st0" d="M-350.7,408.9c1.9,0,3.8,0.5,5.6,1.3
		c3,2.2,7.2,1.8,11.2,1.9v3.2c-4,0-8.3,0.4-11.3-2c-1.8-0.8-3.8-1.3-5.7-1.2h-8.8c-2,0-3.9,0.4-5.7,1.2c-3,2.4-7.3,2-11.3,2v-3.2
		c4-0.1,8.1,0.3,11.2-1.9c1.7-0.8,3.6-1.3,5.6-1.3H-350.7z M-355.5,402.8c3.2,0,6.5-0.1,9,1.4c2,1.3,4.3,1.9,6.7,1.8h5.7v3.2
		c-2.3,0-4.3,0.1-6.5,0c-2.1,0-4.2-0.7-5.9-1.8c-1.9-0.9-4.1-1.4-6.2-1.3h-5.6c-2.1,0-4.3,0.4-6.2,1.3c-1.8,1.2-3.8,1.8-5.9,1.8
		c-2.2,0.1-4.2,0-6.5,0V406h5.7c2.4,0.1,4.7-0.5,6.7-1.8C-361.9,402.7-358.6,402.8-355.5,402.8 M-355.5,396.7h1.7c2,0,4,0.5,5.8,1.4
		c2,1.3,4.4,1.9,6.8,1.8h7.2v3.2h-8.1c-1.7,0-3.3-0.4-4.8-1.1c-1.2-0.9-2.6-1.5-4.1-1.7c-1.4-0.2-2.9-0.3-4.3-0.3
		c-1.4,0-2.9,0-4.3,0.3c-1.5,0.3-2.9,0.8-4.1,1.7c-1.5,0.6-3.2,1-4.8,1.1h-8.1v-3.1h7.2c2.4,0.1,4.8-0.5,6.8-1.8
		c1.8-1,3.8-1.4,5.8-1.4C-356.5,396.7-356,396.6-355.5,396.7 M-355.3,390.6c2.3-0.1,4.6,0.5,6.5,1.8c2,1.1,4.2,1.5,6.4,1.4h8.4v3.2
		h-9.6c-1.7,0-3.5-0.5-5-1.3c-2-1.3-4.4-2-6.9-1.9c-2.4-0.1-4.8,0.6-6.9,1.9c-1.6,0.8-3.3,1.2-5,1.3h-9.5v-3.2h8.4
		c2.2,0.1,4.4-0.4,6.4-1.4c2-1.2,4.2-1.8,6.5-1.8H-355.3z"/>
	<path id="Path_31_00000034065750665082923280000011538889459847623319_" d="M-299.3,401.7c0-0.5,0-1.1,0.1-1.6v-3.9
		c0,0-2.3-2.8-7.6-2.7c-3.2-0.1-6.2,1.4-8.1,3.9c-1.3,1.9-1.8,4.2-1.4,6.4c0.5,3.3,2.5,5.3,5.6,7.2c3.2,2.1,5.5,2.6,7.5,4.8
		c2.2,2.1,1.7,5.9,0.2,7.7c-1,1.1-2.3,1.9-3.8,2.3c-2.2,0.4-4.5-0.1-6.2-1.5c-1.9-1.7-3.3-4-4.1-6.4l-0.2,6.3c2.5,2.3,5.7,3.6,9,3.7
		c4.8,0.1,9.1-3.2,10.3-7.9c0.5-2.4,0-4.9-1.3-6.9c-0.8-1-1.8-2-2.9-2.7c-2.7-2.2-9.3-4.8-10.3-7.7c-1-2.9,0.5-6,3.4-7
		c0.6-0.2,1.2-0.3,1.8-0.3c2.8,0.1,5.4,1.6,6.9,4C-299.9,400.1-299.5,400.9-299.3,401.7"/>
	<path id="Path_32_00000121252489450713957220000007536938965982301844_" d="M-148.9,401.7c0-0.5,0-1.1,0.1-1.6v-3.9
		c0,0-2.3-2.8-7.6-2.7c-3.2-0.1-6.2,1.4-8.1,3.9c-1.3,1.9-1.8,4.2-1.4,6.4c0.5,3.3,2.5,5.3,5.6,7.2c3.2,2.1,5.5,2.6,7.5,4.8
		c1.9,2.2,2,5.4,0.2,7.7c-1,1.1-2.3,1.9-3.8,2.3c-2.2,0.4-4.5-0.1-6.2-1.5c-1.9-1.7-3.3-4-4.1-6.4l-0.2,6.3c2.5,2.3,5.7,3.6,9,3.7
		c4.9,0.1,9.1-3.2,10.3-7.9c0.5-2.4,0-4.9-1.3-6.9c-0.8-1-1.8-2-2.9-2.7c-2.7-2.2-9.3-4.8-10.3-7.7c-1.1-2.8,0.3-5.9,3.1-7
		c0.7-0.3,1.4-0.4,2.1-0.4c2.8,0.1,5.4,1.6,6.9,3.9C-149.5,400-149.1,400.9-148.9,401.7"/>
	<path id="Path_33_00000100379742584963690230000012777838335199517115_" d="M-289,397.9c0,0-0.1-0.8-0.1-1.5s0.1-2.3,0.1-2.4h23
		c0,0,0.1,2.1,0.1,2.6c0,0.4-0.1,0.8-0.2,1.2c-0.4-0.7-1-1.3-1.8-1.6c-0.5-0.1-2.6-0.2-4.4-0.3c-1.1,0-2.1-0.1-2.3-0.1
		c-0.4,0-0.8,0.1-0.8,0.5c0,0-0.1,28.2-0.1,28.5c0,0.3,0.3,2.3,1.4,2.7h-7.3c0.9-0.5,1.5-1.6,1.4-2.6v-28.5c0-0.2-0.1-0.4-0.5-0.4
		c-2.3-0.1-4.6,0-6.9,0.2C-288,396.6-288.6,397.2-289,397.9"/>
	<path id="Path_34_00000065768249395937249230000018232462514932500879_" d="M-236.7,397.7c0.1-1.1,0.1-2.1,0-3.2
		c-0.1-0.5-0.4-0.6-0.6-0.6H-256c0.6,0.5,1,1,1.4,1.6c0.3,0.4,0.4,0.9,0.4,1.4c0,0.2,0.1,10.5,0.1,12.3c0,1.9,0,14.5-0.2,16.3
		c-0.1,0.9-1.6,2.1-1.6,2.1h20.3c0.7-1.6,1-3.3,0.9-5.1c-0.8,1.5-2.3,2.5-4,2.8c-3.5,0.4-7.1,0.3-10.6-0.2c0,0-0.6,0-0.6-0.5
		c0-3.2,0-10.1-0.1-13.5c0-0.5,0-0.9,0.5-0.9c2.8-0.1,5.7-0.1,8.5,0c0.6,0,1,0.6,1.5,1.1c0.2-1.5,0.2-3,0-4.4c0,0-0.7,0.9-1.3,1
		c-2.2,0.2-8.5,0.1-8.7,0.1s-0.4-0.2-0.5-0.6v-10.8c0-0.2,0.1-0.7,0.6-0.7c0.4,0,7.2-0.1,10.1,0.2
		C-238.2,396.4-237.3,396.9-236.7,397.7"/>
	<path id="Path_35_00000062876345529720460950000016955222187586070711_" d="M-223.8,427.6c0,0,1.3-0.8,1.3-1.8
		c0-0.9-0.1-29.7-0.1-30c0-0.3,0-1.1-1.6-1.9h11c0.6,0,10.1,0.3,10.2,8.3c-0.1,4-2.8,7.4-6.7,8.4c0,0-0.2,0.1-0.2,0.2
		c0,0.1,0,0.2,0.1,0.3c0.9,0.7,1.7,1.6,2.4,2.5c1.3,1.7,7.7,11.6,8,11.9c0.7,0.9,1.7,1.6,2.8,2c-1.6,0.1-3.1,0.1-4.7,0
		c-1.3-0.1-2.5-0.9-3.2-2.1c-1-1.4-6.6-10.5-8-12.3c-0.6-0.7-1.5-1.2-2.4-1.1h-2.9c-0.4,0-0.7,0.3-0.7,0.7c0,0,0,0.1,0,0.1
		c0,0.4,0.1,12.6,0.1,13.1c0.2,0.8,0.7,1.4,1.4,1.8L-223.8,427.6L-223.8,427.6z M-218.3,409.4c0,0.2,0.1,0.8,0.4,0.8
		c1.7,0.1,3.3,0,5-0.2c3.6-0.9,6.1-4.3,5.8-8c-0.1-2.2-0.9-5.6-5.9-6.3c-1.6-0.2-3.1-0.2-4.7-0.1c-0.6,0-0.7,0.4-0.7,0.8
		C-218.3,396.7-218.3,409.4-218.3,409.4"/>
	<path id="Path_36_00000152262415761886468080000004182392873641638533_" d="M-181,427.6c-0.6-0.4-1.1-0.9-1.3-1.6
		c0-0.3-0.1-28.8,0-30.1c0.1-0.8,0.5-1.5,1.1-2h-6.4c0.7,0.4,1.1,1.1,1.1,1.9c0.1,1.3,0,29.7,0,30.1c-0.2,0.7-0.6,1.3-1.2,1.7
		L-181,427.6z"/>
</g>
</svg>
