<?xml version="1.0" encoding="UTF-8"?>
<svg id="Ebene_1" data-name="Ebene 1" xmlns="http://www.w3.org/2000/svg" version="1.1" viewBox="0 0 560.5 108.4">
  <defs>
    <style>
      .cls-1 {
        fill: #000;
        stroke-width: 0px;
      }
    </style>
  </defs>
  <g id="vwxaw5.tif">
    <g>
      <path class="cls-1" d="M426.1,15c.2,0,.4,0,.5,0,8.8,0,17.6,0,26.4,0,3.6,0,7.1.4,10.6,1.3,2.7.7,5.3,1.6,7.7,3.1,2.6,1.7,4.5,4,5.8,6.7,1.2,2.4,1.8,4.9,2.2,7.5.2,1.8.3,3.5.2,5.3-.3,6.1-2.7,11.1-7.7,14.9-1.3.9-2.6,1.8-4,2.6-.2,0-.3.2-.5.3.2,0,.2.2.3.2,1.9.9,3.4,2.2,4.6,3.8,1.4,1.8,2.5,3.8,3.3,5.9,1.7,4.1,3.5,8.3,5.2,12.4.8,2,1.7,4,2.5,6,0,.2.2.4.3.7,9.2-23.6,18.3-47.1,27.4-70.6.5-.1,19.5-.1,20.2,0,9.1,26,18.1,52.1,27.2,78.2h-18.3c0-.2-.2-.4-.2-.6-1.5-4.6-3.1-9.2-4.6-13.9,0-.1,0-.2-.1-.3,0-.3-.2-.4-.5-.4-.1,0-.2,0-.3,0-9.6,0-19.1,0-28.7,0,0,0-.1,0-.2,0-.6,0-.6,0-.8.5-1.7,4.7-3.4,9.3-5.2,14,0,.2-.2.5-.3.7h-32.1c0-.2-.2-.3-.2-.5-3-7.4-5.9-14.8-8.9-22.2-.6-1.5-1.3-2.9-2.1-4.2-1.6-2.7-4.1-4.2-7.1-4.7-1.4-.3-2.8-.4-4.2-.3-.4,0-.8.1-1.2.2v31.7h-17.4V15ZM530.6,64.7c-3.3-10-6.5-19.9-9.7-29.8,0,0,0,0-.1,0-3.6,9.9-7.1,19.8-10.7,29.7.5.1,19.9.1,20.5,0ZM443.6,28.8c-.1.6-.1,17.8,0,18.3.1,0,.2,0,.4,0,2.8,0,5.7,0,8.5,0,1.2,0,2.4-.2,3.6-.6,2.3-.7,3.9-2.1,4.7-4.3.9-2.5,1.1-5.1.3-7.6-.8-2.7-2.5-4.5-5.3-5.2-1.3-.3-2.5-.5-3.8-.5-2.7,0-5.3,0-8,0-.2,0-.4,0-.5,0Z"/>
      <path class="cls-1" d="M151.5,15c.3,0,.5,0,.7,0,4.7,0,9.4,0,14.1,0,.4,0,.7.1,1,.5,12.1,15.1,24.3,30.2,36.4,45.3.2.3.5.6.7.8,0,0,0,0,0,0,0,0,0,0,0,0,0,0,0,0,0-.1,0,0,0,0,0,0,0,0,0,0,0,0,0,0,0-.1,0-.2,0-15.3,0-30.5,0-45.8,0,0,0,0,0,0,0,0,0,0,0,0,0,0,0,0,0,0,0,0,0,0,0,0,0,0,0,0,0,0,.4-.1,16.4-.1,17.1,0,.1.4.1,77.6,0,78.2h-.6c-4.1,0-8.3,0-12.4,0-.5,0-.7-.2-1-.5-12.7-16-25.4-32-38.2-48.1-.1-.2-.3-.4-.5-.6,0,.2,0,.3,0,.4,0,.2,0,.4,0,.6,0,15.8,0,31.6,0,47.3v.8h-17.4V15Z"/>
      <path class="cls-1" d="M144.1,53.9c0,4.8-.5,9.2-1.8,13.4-1.4,4.7-3.5,9.2-6.5,13.1-3.7,4.8-8.2,8.6-13.8,11.1-3.1,1.4-6.3,2.2-9.6,2.8-3,.5-6,.6-8.9.4-6.1-.4-11.9-1.9-17.1-5.2-4.4-2.7-8-6.3-11-10.6-3.3-4.7-5.4-10-6.5-15.7-.6-3.3-.9-6.6-.9-10,.2-7.5,1.9-14.7,5.6-21.2,3.4-5.9,7.9-10.6,13.8-13.9,3.3-1.8,6.8-3,10.4-3.7,3.3-.7,6.6-.9,9.9-.8,5.6.3,10.9,1.4,15.9,4,5.5,2.8,9.9,6.8,13.3,11.9,1.7,2.6,3.2,5.4,4.3,8.4.9,2.3,1.6,4.7,2.1,7.1.4,2.1.6,4.2.7,6.3,0,1,0,1.9,0,2.5ZM126.1,54.2c0-2.1-.2-4.1-.6-6.1-.6-3.3-1.7-6.4-3.6-9.2-3.5-5.3-8.5-8.3-14.9-8.8-3.2-.2-6.3.4-9.2,1.8-4,1.9-6.9,5-8.9,8.9-1.9,3.6-2.8,7.5-3,11.6-.2,3.1,0,6.1.8,9.1.8,3.3,2,6.4,4.1,9.1,3.4,4.5,7.9,7.1,13.5,7.7,4.2.4,8.1-.6,11.7-2.8,3.4-2.1,5.8-5.2,7.5-8.8,1.8-3.9,2.6-8.1,2.6-12.4Z"/>
      <path class="cls-1" d="M362,15c.3,0,.5,0,.7,0,8.3,0,16.7,0,25,0,3.5,0,6.9.3,10.4.9,2.2.4,4.4,1.1,6.4,2,4.1,1.7,7,4.7,8.8,8.7,1.1,2.4,1.7,4.9,2,7.5.2,1.6.3,3.2.2,4.8-.1,2.3-.5,4.6-1.3,6.8-1,2.9-2.9,5.2-5.2,7.2-1.5,1.4-3.2,2.5-5,3.5-.2,0-.3.2-.6.3.2.1.4.2.5.3,1.5.8,2.8,1.9,3.9,3.2,1.8,2.1,3.1,4.5,4.1,7,3.5,8.5,7,17,10.5,25.4,0,.2.2.4.3.7-.4.1-18.4.2-19.6,0,0-.2-.2-.4-.3-.6-2.8-7.1-5.6-14.2-8.3-21.3-.7-1.8-1.6-3.4-2.6-5.1-1.5-2.5-3.7-3.9-6.6-4.5-1.5-.3-3.1-.5-4.6-.4-.4,0-.9.1-1.4.2v31.6c0,0,0,0,0,0,0,0,0,0,0,0-.1,0-.2,0-.3,0-5.6,0-11.1,0-16.7,0,0,0-.1,0-.2,0V15ZM379.4,28.8c-.1.6-.1,17.8,0,18.3.1,0,.3,0,.4,0,2.8,0,5.6,0,8.4,0,1.2,0,2.3-.2,3.4-.5,2.9-.8,4.7-2.5,5.4-5.4.1-.6.3-1.1.3-1.7.2-1.9,0-3.8-.6-5.7-.8-2.1-2.2-3.5-4.3-4.3-1.4-.5-2.9-.7-4.5-.7-2.7,0-5.3,0-8,0-.2,0-.3,0-.5,0Z"/>
      <path class="cls-1" d="M305.6,78c-1.8,5.1-3.6,10.1-5.5,15.2h-18.7c10.2-26.1,20.4-52.2,30.6-78.2.4-.1,19.4-.1,20.1,0,9.1,26,18.1,52.1,27.2,78.2h-18.5c0-.2-.1-.4-.2-.6-1.5-4.6-3-9.3-4.5-13.9,0-.1,0-.2-.1-.4,0-.2-.2-.3-.4-.3-.1,0-.3,0-.4,0-9.6,0-19.2,0-28.8,0h-.8ZM331.4,64.7c0-.2-.1-.4-.2-.6-2.2-6.8-4.4-13.5-6.6-20.3-.9-2.8-1.8-5.5-2.7-8.3,0-.2,0-.4-.3-.5-.4.9-10.8,29.3-10.8,29.7.4.1,19.9.1,20.6,0Z"/>
      <path class="cls-1" d="M43.4,93.2h-18.4V29.4c-2.6,0-5.2,0-7.7,0-2.5,0-5.1,0-7.6,0H2.1c-.2-.5-.2-13.8,0-14.3h64.5v14.3c-.2,0-.5,0-.7,0-7.2,0-14.4,0-21.5,0h-.8v63.9Z"/>
      <path class="cls-1" d="M226.5,15h64.5v14.3c-.2,0-.5,0-.7,0-6.8,0-13.6,0-20.4,0-.5,0-.9,0-1.4,0-.2,0-.4,0-.6,0v63.9h-18.4c0-1.8,0-3.5,0-5.3,0-1.8,0-3.6,0-5.3V29.4c-.3,0-.6,0-.8,0-7.2,0-14.4,0-21.5,0h-.7v-14.3Z"/>
    </g>
  </g>
</svg>