<?xml version="1.0" standalone="no"?>
<!DOCTYPE svg PUBLIC "-//W3C//DTD SVG 20010904//EN"
 "http://www.w3.org/TR/2001/REC-SVG-20010904/DTD/svg10.dtd">
<svg version="1.0" xmlns="http://www.w3.org/2000/svg"
 width="1024.000000pt" height="1024.000000pt" viewBox="0 0 1024.000000 1024.000000"
 preserveAspectRatio="xMidYMid meet">
<metadata>
Created by potrace 1.14, written by Peter Selinger 2001-2017
</metadata>
<g transform="translate(0.000000,1024.000000) scale(0.100000,-0.100000)"
fill="#000000" stroke="none">
<path d="M1978 9382 l-148 -3 0 -1019 c0 -964 1 -1020 18 -1021 9 0 892 -2
1962 -3 1070 -2 1959 -5 1975 -8 17 -3 59 -9 95 -12 179 -19 449 -67 479 -85
8 -5 -1150 -1169 -3170 -3189 l-3182 -3181 64 -3 c35 -2 138 -2 229 0 l165 3
3129 3129 3128 3128 37 -15 c20 -8 83 -37 141 -64 l104 -50 -3061 -3061
c-1684 -1684 -3061 -3063 -3059 -3065 1 -1 101 -3 222 -4 l219 -1 2975 2975
2976 2975 24 -20 c235 -188 415 -413 544 -679 78 -162 154 -397 181 -559 33
-203 38 -270 39 -500 0 -273 -8 -346 -64 -564 -28 -106 -64 -211 -111 -316
-46 -103 -106 -219 -125 -241 -8 -8 -14 -19 -14 -22 0 -13 -125 -182 -189
-257 -193 -225 -431 -408 -703 -539 -158 -75 -420 -154 -593 -177 -27 -3 -59
-9 -70 -12 -11 -3 -560 -8 -1220 -9 l-1200 -4 -123 -127 c-68 -70 -258 -264
-422 -432 -164 -168 -359 -368 -434 -445 -76 -77 -271 -277 -435 -445 -467
-478 -580 -595 -577 -598 4 -3 4380 -1 4441 3 126 7 248 17 263 20 9 1 48 6
86 9 38 4 72 9 75 10 3 2 29 7 56 10 86 12 119 17 135 21 8 3 33 7 55 10 22 4
48 8 57 11 9 3 25 6 35 8 420 84 955 296 1323 523 135 83 360 238 404 278 6 6
36 30 66 55 99 81 133 113 280 260 161 162 178 180 271 295 305 379 538 807
690 1270 38 115 109 380 123 455 2 14 7 36 10 50 12 53 51 308 60 400 28 264
28 828 2 990 -3 14 -7 52 -10 85 -4 33 -8 71 -10 85 -6 34 -17 99 -21 130 -28
197 -106 500 -188 735 -68 196 -192 476 -268 606 -15 26 -42 73 -59 105 -88
159 -304 458 -448 620 -106 119 -311 319 -402 392 l-24 19 531 532 c392 392
526 531 510 531 -12 1 -114 1 -227 0 l-205 0 -432 -432 -431 -431 -105 69
c-58 38 -113 74 -123 81 -17 10 17 48 331 362 342 343 349 351 315 352 -19 0
-122 0 -228 -1 l-194 0 -270 -270 -269 -270 -48 25 c-241 122 -607 256 -912
334 -152 39 -367 85 -444 96 -22 3 -65 10 -95 15 -30 5 -75 12 -100 15 -25 3
-63 8 -85 11 -22 3 -51 7 -65 9 -14 2 -61 7 -105 10 -44 4 -93 9 -110 11 -108
12 -626 16 -2160 17 -957 1 -1806 1 -1887 -1z"/>
</g>
</svg>
