<svg xmlns="http://www.w3.org/2000/svg" fill="currentColor" viewBox="0 0 294 72"><path d="M155.5 19.2c17.7 0 17.8 13.6 17.8 13.6v21.5h-11V35.4s-.3-6.7-7-6.7-6.4 6.9-6.4 6.9v18.7H138V32.8s-.2-13.6 17.5-13.6zM68.8 19.4c5.6-.7 12 .7 14.8 5.3.3.4 1.1 2 1.1 2l-8.4 3.4c-.4-.6-.8-1.1-1.2-1.6-1.5-1.5-4-2.8-5.8-1.1-.8.7-1.1 1.8-.9 2.9.7 3 10.3 3.9 13.9 7.2 1.4 1.3 2.3 3 2.7 4.9.7 2.8.2 5.8-1.5 8.3-4.8 7.6-19.8 6.8-25.1.2-.6-.7-1.8-2.8-1.8-2.8l9.2-3.6 1.1 1.5c1.2 1.7 3.2 2.6 5.2 2.3 1.5-.3 4-2 2.2-4.7-.2-.2-.3-.4-.5-.5-1.4-.9-2.9-1.4-4.6-1.7-3-.8-7.4-2.5-9.4-4.8-4.3-5.4-1.9-11.4 2.2-14.6 2-1.4 4.4-2.3 6.8-2.6z"/><path d="M41.3 20.3L52.4 20.3 52.4 54.3 41.3 54.3 41.3 20.3z"/><path d="M278.2 19.2c12 0 15.8 6.6 15.8 6.6l-10.8 4.4c-1.5-1.1-3.4-1.7-5.2-1.5-6.7 0-6.4 6.9-6.4 6.9v18.7h-10.9V32.8s-.5-13.6 17.5-13.6z"/><path d="M10.6 32.3v9.1c0 4 3.6 6.9 8.7 5.6s6-7 6-9.6v-1.3V35c-.1-2.3-.8-7.7-6-9-5.8-1.2-8.7 4.2-8.7 6.3zM0 0h10.8v20.7c5.7-3.1 12.6-2.7 17.9 1 1.3 1 2.6 2.1 3.7 3.3 5.9 6.5 3.1 18.8 3.1 18.8S32.5 56 17.4 56C6.5 56 2.4 50.7.8 47.2c-.2-.6-.4-1.1-.5-1.7-.3-1.1-.3-2.1-.3-3V0zM196.3 26.9c-2.9.1-5.6 1.9-6.7 4.6-.4.8-.6 1.6-.6 2.5v6.7c.4 3.9 3.4 6.9 7.3 7.4 7.7.5 7.6-5.3 7.6-5.3v-8.9c-.1 0 0-6.8-7.6-7zm18.7 7.5V56s.4 14.8-17.3 15.9c-20 1.3-19.9-12.4-19.9-12.4H189s1.4 5.2 9.4 4.1c7-1.1 5.5-9.5 5.5-9.5s-8.6 5.4-19.3-1.9c-7.7-5.3-9.3-20-2-27.2 8.4-8.3 20.2-6.3 26.3-1.6 6.4 4.9 6.1 11 6.1 11zM238.2 26.8c-6.7 0-7 6.9-7 6.9h14.1s-.1-6.9-7.1-6.9zm-.4-7.6c9.4 0 16.6 4.9 18.3 13.9.2 2.2.3 4.4.2 6.6H231c0 3.4 2.1 6.4 5.2 7.6 6.1 2.3 10-4 10-4l8.7 4.5s-10.8 13-25.1 6.7c-.8-.4-1.7-.8-2.4-1.2-.3-.2-.4-.3-.7-.4-4.8-2.9-9.9-12.8-5.6-23.3 2.4-5.9 9-10.4 16.7-10.4z"/><path d="M99.3 19.4c5.6-.7 12 .7 14.8 5.3.3.4 1.1 2 1.1 2l-8.4 3.4c-.4-.6-.8-1.1-1.2-1.6-1.4-1.5-4-2.8-5.8-1.1-.8.7-1.1 1.8-.9 2.9.7 3 10.3 3.9 13.9 7.2 1.4 1.3 2.3 3 2.7 4.9.7 2.8.2 5.8-1.5 8.3-4.8 7.6-19.8 6.8-25.1.2-.6-.7-1.8-2.8-1.8-2.8l9.2-3.6 1.1 1.5c1.2 1.7 3.2 2.6 5.2 2.3 1.5-.3 4-2 2.2-4.7-.2-.2-.3-.4-.5-.5-1.4-.9-2.9-1.4-4.5-1.7-3-.8-7.4-2.5-9.4-4.8-4.3-5.3-1.9-11.3 2.2-14.5 1.8-1.5 4.2-2.4 6.7-2.7z"/><path d="M120.2 20.3L131.4 20.3 131.4 54.3 120.2 54.3 120.2 20.3z"/></svg>
