<svg xmlns="http://www.w3.org/2000/svg" fill="currentColor" viewBox="0 0 266.5 45.7">
  <path d="M27.3 0h14.8v44.4H27.3V26.2H13.7v18.2H0V0h13.7v17.1h13.7V0zm61.5 25.1c0 14-6.8 20.5-20.5 20.5s-20.5-6.5-20.5-20.5V0h13.7v26.2c0 5.4 1.8 8.1 5.4 8.1h2.8c3.6 0 5.4-2.7 5.4-8.1V0h13.7v25.1zm43.3-21.7c3 3 4.6 6.7 4.6 12.5 0 3.4-1.2 6.6-3.4 8.4-.8.6-1.6 1.3-2.3 1.9-3 2.5-7.1 3.4-12.4 3.4h-8v14.8H96.8V0h21.6c6.2 0 10.7 1.3 13.7 3.4zm-10.3 16c.6-.9 1.1-2.2 1.1-3.4 0-2.3-.5-3.6-1.1-4.6-1.4-.7-3.1-1.1-5.7-1.1h-5.7v10.2h5.7c2.7 0 4.3-.4 5.7-1.1zm33.1-9.2v8H172v10.2h-17.1v15.9h-13.7V0h35.3v10.2h-21.6zm62.6 24v10.2h-36.4V0h35.3v10.2h-21.6v8h17.1v8h-17.1v8h22.7zm26.2-5.7H238v15.9h-13.7V0H246c6.4 0 10.7 1.2 13.7 3.4 2.8 2.8 4.3 6.4 4.6 11.4-.2 6.2-3 10.5-9.1 12.5l11.4 17.1h-14.8l-8.1-15.9zm-5.7-8h6.8c2.6 0 4.3-.4 5.7-1.1.6-.8 1.1-2.1 1.1-3.4 0-2.3-.5-3.7-1.1-4.6-1.4-.7-3.1-1.1-5.7-1.1H238v10.2z"/>
</svg>
