<svg xmlns="http://www.w3.org/2000/svg" fill="currentColor" viewBox="0 0 229.59 37.31">
  <g stroke-width="0" data-name="Group 3190">
    <path fill-rule="evenodd" d="M43 30.91c-.1 0-3 .1-3.7 0-1.1-.1-2.2-.3-3.2-.6-1.3-.5-2.6-1.1-3.9-1.8-2.1-.7-4.3-1-6.5-.8h-8.3c-2.2-.2-4.4.1-6.5.8-1.2.7-2.5 1.3-3.9 1.8-1 .3-2.1.5-3.2.6H.1v-3.2c.1 0 3 0 3.7-.1 1.1-.1 2.2-.2 3.2-.5 1.3-.5 2.6-1.1 3.9-1.9 2.1-.7 4.3-1 6.5-.8h8.3c2.2-.2 4.4.1 6.5.8 1.2.7 2.5 1.4 3.9 1.9 1 .3 2.1.4 3.2.5.7 0 3.5.1 3.7.1v3.2z" data-name="Path 28"/>
    <path fill-rule="evenodd" d="M21.5 30.51h8.3c1.9 0 3.8.6 5.5 1.6 2.4 1.3 5.1 1.8 7.7 1.5v3.2c-3 .1-6.1-.2-8.4-2-1.7-.8-3.6-1.2-5.6-1.2H14.1c-1.9 0-3.8.4-5.6 1.2-2.3 1.9-5.5 2.2-8.5 2.1v-3.2c2.7.2 5.3-.3 7.7-1.5 1.6-1 3.5-1.6 5.5-1.6l8.3-.1z" data-name="Path 29"/>
    <path fill-rule="evenodd" d="M26.3 18.31c1.9 0 3.8.5 5.6 1.3 3 2.2 7.2 1.8 11.2 1.9v3.2c-4 0-8.3.4-11.3-2-1.8-.8-3.8-1.3-5.7-1.2h-8.8c-2 0-3.9.4-5.7 1.2-3 2.4-7.3 2-11.3 2v-3.2c4-.1 8.1.3 11.2-1.9 1.7-.8 3.6-1.3 5.6-1.3h9.2zm-4.8-6.1c3.2 0 6.5-.1 9 1.4 2 1.3 4.3 1.9 6.7 1.8h5.7v3.2c-2.3 0-4.3.1-6.5 0-2.1 0-4.2-.7-5.9-1.8-1.9-.9-4.1-1.4-6.2-1.3h-5.6c-2.1 0-4.3.4-6.2 1.3-1.8 1.2-3.8 1.8-5.9 1.8-2.2.1-4.2 0-6.5 0v-3.2h5.7c2.4.1 4.7-.5 6.7-1.8 2.6-1.5 5.9-1.4 9-1.4m0-6.1h1.7c2 0 4 .5 5.8 1.4 2 1.3 4.4 1.9 6.8 1.8H43v3.2h-8.1c-1.7 0-3.3-.4-4.8-1.1-1.2-.9-2.6-1.5-4.1-1.7-1.4-.2-2.9-.3-4.3-.3s-2.9 0-4.3.3c-1.5.3-2.9.8-4.1 1.7-1.5.6-3.2 1-4.8 1.1H.4v-3.1h7.2c2.4.1 4.8-.5 6.8-1.8 1.8-1 3.8-1.4 5.8-1.4.3-.1.8-.2 1.3-.1m.2-6.1c2.3-.1 4.6.5 6.5 1.8 2 1.1 4.2 1.5 6.4 1.4H43v3.2h-9.6c-1.7 0-3.5-.5-5-1.3-2-1.3-4.4-2-6.9-1.9-2.4-.1-4.8.6-6.9 1.9-1.6.8-3.3 1.2-5 1.3H.1v-3.2h8.4c2.2.1 4.4-.4 6.4-1.4 2-1.2 4.2-1.8 6.5-1.8h.3z" data-name="Path 30"/>
    <path d="M77.7 11.11c0-.5 0-1.1.1-1.6v-3.9s-2.3-2.8-7.6-2.7c-3.2-.1-6.2 1.4-8.1 3.9-1.3 1.9-1.8 4.2-1.4 6.4.5 3.3 2.5 5.3 5.6 7.2 3.2 2.1 5.5 2.6 7.5 4.8 2.2 2.1 1.7 5.9.2 7.7-1 1.1-2.3 1.9-3.8 2.3-2.2.4-4.5-.1-6.2-1.5-1.9-1.7-3.3-4-4.1-6.4l-.2 6.3c2.5 2.3 5.7 3.6 9 3.7 4.8.1 9.1-3.2 10.3-7.9.5-2.4 0-4.9-1.3-6.9-.8-1-1.8-2-2.9-2.7-2.7-2.2-9.3-4.8-10.3-7.7-1-2.9.5-6 3.4-7 .6-.2 1.2-.3 1.8-.3 2.8.1 5.4 1.6 6.9 4 .5.7.9 1.5 1.1 2.3" data-name="Path 31"/>
    <path d="M228.1 11.11c0-.5 0-1.1.1-1.6v-3.9s-2.3-2.8-7.6-2.7c-3.2-.1-6.2 1.4-8.1 3.9-1.3 1.9-1.8 4.2-1.4 6.4.5 3.3 2.5 5.3 5.6 7.2 3.2 2.1 5.5 2.6 7.5 4.8 1.9 2.2 2 5.4.2 7.7-1 1.1-2.3 1.9-3.8 2.3-2.2.4-4.5-.1-6.2-1.5-1.9-1.7-3.3-4-4.1-6.4l-.2 6.3c2.5 2.3 5.7 3.6 9 3.7 4.9.1 9.1-3.2 10.3-7.9.5-2.4 0-4.9-1.3-6.9-.8-1-1.8-2-2.9-2.7-2.7-2.2-9.3-4.8-10.3-7.7-1.1-2.8.3-5.9 3.1-7 .7-.3 1.4-.4 2.1-.4 2.8.1 5.4 1.6 6.9 3.9.5.8.9 1.7 1.1 2.5" data-name="Path 32"/>
    <path d="M88 7.31s-.1-.8-.1-1.5.1-2.3.1-2.4h23s.1 2.1.1 2.6c0 .4-.1.8-.2 1.2-.4-.7-1-1.3-1.8-1.6-.5-.1-2.6-.2-4.4-.3-1.1 0-2.1-.1-2.3-.1-.4 0-.8.1-.8.5 0 0-.1 28.2-.1 28.5s.3 2.3 1.4 2.7h-7.3c.9-.5 1.5-1.6 1.4-2.6V5.81c0-.2-.1-.4-.5-.4-2.3-.1-4.6 0-6.9.2-.6.4-1.2 1-1.6 1.7" data-name="Path 33"/>
    <path d="M140.3 7.11c.1-1.1.1-2.1 0-3.2-.1-.5-.4-.6-.6-.6H121c.6.5 1 1 1.4 1.6.3.4.4.9.4 1.4 0 .2.1 10.5.1 12.3 0 1.9 0 14.5-.2 16.3-.1.9-1.6 2.1-1.6 2.1h20.3c.7-1.6 1-3.3.9-5.1-.8 1.5-2.3 2.5-4 2.8-3.5.4-7.1.3-10.6-.2 0 0-.6 0-.6-.5 0-3.2 0-10.1-.1 13.5 0-.5 0-.9.5-.9 2.8-.1 5.7-.1 8.5 0 .6 0 1 .6 1.5 1.1.2-1.5.2-3 0-4.4 0 0-.7.9-1.3 1-2.2.2-8.5.1-8.7.1s-.4-.2-.5-.6V6.01c0-.2.1-.7.6-.7.4 0 7.2-.1 10.1.2 1.1.3 2 .8 2.6 1.6" data-name="Path 34"/>
    <path d="M153.2 37.01s1.3-.8 1.3-1.8c0-.9-.1-29.7-.1-30s0-1.1-1.6-1.9h11c.6 0 10.1.3 10.2 8.3-.1 4-2.8 7.4-6.7 8.4 0 0-.2.1-.2.2s0 .2.1.3c.9.7 1.7 1.6 2.4 2.5 1.3 1.7 7.7 11.6 8 11.9.7.9 1.7 1.6 2.8 2-1.6.1-3.1.1-4.7 0-1.3-.1-2.5-.9-3.2-2.1-1-1.4-6.6-10.5-8-12.3-.6-.7-1.5-1.2-2.4-1.1h-2.9c-.4 0-.7.3-.7.7v.1c0 .4.1 12.6.1 13.1.2.8.7 1.4 1.4 1.8l-6.8-.1zm5.5-18.2c0 .2.1.8.4.8 1.7.1 3.3 0 5-.2 3.6-.9 6.1-4.3 5.8-8-.1-2.2-.9-5.6-5.9-6.3-1.6-.2-3.1-.2-4.7-.1-.6 0-.7.4-.7.8.1.3.1 13 .1 13" data-name="Path 35"/>
    <path d="M196 37.01c-.6-.4-1.1-.9-1.3-1.6 0-.3-.1-28.8 0-30.1.1-.8.5-1.5 1.1-2h-6.4c.7.4 1.1 1.1 1.1 1.9.1 1.3 0 29.7 0 30.1-.2.7-.6 1.3-1.2 1.7h6.7z" data-name="Path 36"/>
  </g>
</svg>
